
        <svg xmlns="http://www.w3.org/2000/svg" xmlns:xlink="http://www.w3.org/1999/xlink" version="1.1" width="3142.006538277211" 
        height="562.0317029715029" viewBox="0 0 3142.006538277211 562.0317029715029">
			<rect fill="#0a0a0a" width="3142.006538277211" height="562.0317029715029"/>
			<g transform="scale(7.100326913860543) translate(10, 10)">
				<defs id="SvgjsDefs1082"><linearGradient id="SvgjsLinearGradient1089"><stop id="SvgjsStop1090" stop-color="#51504f" offset="0"></stop><stop id="SvgjsStop1091" stop-color="#939598" offset="0.5"></stop><stop id="SvgjsStop1092" stop-color="#51504f" offset="1"></stop></linearGradient><linearGradient id="SvgjsLinearGradient1093"><stop id="SvgjsStop1094" stop-color="#51504f" offset="0"></stop><stop id="SvgjsStop1095" stop-color="#939598" offset="0.5"></stop><stop id="SvgjsStop1096" stop-color="#51504f" offset="1"></stop></linearGradient><linearGradient id="SvgjsLinearGradient1097"><stop id="SvgjsStop1098" stop-color="#51504f" offset="0"></stop><stop id="SvgjsStop1099" stop-color="#939598" offset="0.5"></stop><stop id="SvgjsStop1100" stop-color="#51504f" offset="1"></stop></linearGradient></defs><g id="SvgjsG1083" featureKey="nameLeftFeature-0" transform="matrix(1.1571937977846107,0,0,1.1571937977846107,-1.573782064110105,-0.8863266770013336)" fill="url(#SvgjsLinearGradient1089)"><path d="M18.8 34.96 l2.72 0 c-1.76 3.2 -5.16 5.44 -9.04 5.44 c-5.68 0 -11.12 -3.8 -11.12 -9.96 c0 -6.76 5.44 -10.08 11.12 -10.08 l1 0 c3.4 0 6.56 2.2 7.92 5.32 l-4.36 0 c-1.64 -2.52 -3.84 -3.88 -6.04 -3.88 c-3.12 0 -4.92 2.76 -4.92 6.28 c0 6.08 4.28 11.28 8 11.28 c2.4 0 4.16 -1.88 4.72 -4.4 z M22.16 30.16 l0 -1.64 l11.68 0 l0 1.64 l-11.68 0 z M35.559999999999995 40 l0 -1.08 c1.2 -1.4 1.92 -3.32 1.92 -5.24 l0 -15.32 c0 -1.92 -0.72 -3.8 -1.88 -5.16 l0 -1.2 l5.88 0 l0 21.72 c0 1.88 0.72 3.8 1.96 5.2 l0 1.08 l-7.88 0 z M62.36 33.88 l2.96 0 c-1.4 3.8 -5.08 6.52 -9.52 6.52 c-5.64 0 -10.12 -4.52 -10.12 -9.96 c0 -5.56 4.48 -10.08 10.12 -10.08 c5.56 0 10.08 4.4 10.16 9.88 l-16.24 0 c0.16 0.48 0.24 1 0.4 1.56 c1.28 4.4 4.32 7.56 7.4 7.56 c2.88 0 4.44 -2.72 4.84 -5.48 z M49.52 28.6 l12.28 0 c-1.36 -4.16 -4.56 -6.8 -7.56 -6.8 c-3.04 0 -4.76 2.92 -4.76 5.92 c0 0.28 0 0.6 0.04 0.88 z M75 40 l-6.04 -15.44 c-0.16 -0.4 -0.28 -0.6 -0.52 -0.88 l-1.76 -1.88 l0 -1.12 l7.52 0 l0 1.12 l-0.56 1.2 c-0.32 0.68 -0.32 1.44 -0.04 2.2 l5 12.68 l5.08 -13.16 c0.36 -1 0.16 -2.12 -0.52 -2.8 l0 -1.24 l4.76 0 l0 1.24 l-1.52 1 c-0.48 0.32 -0.8 0.8 -0.96 1.24 l-6.12 15.84 l-4.32 0 z M105.16 33.88 l2.96 0 c-1.4 3.8 -5.08 6.52 -9.52 6.52 c-5.64 0 -10.12 -4.52 -10.12 -9.96 c0 -5.56 4.48 -10.08 10.12 -10.08 c5.56 0 10.08 4.4 10.16 9.88 l-16.24 0 c0.16 0.48 0.24 1 0.4 1.56 c1.28 4.4 4.32 7.56 7.4 7.56 c2.88 0 4.44 -2.72 4.84 -5.48 z M92.32000000000001 28.6 l12.28 0 c-1.36 -4.16 -4.56 -6.8 -7.56 -6.8 c-3.04 0 -4.76 2.92 -4.76 5.92 c0 0.28 0 0.6 0.04 0.88 z M110.56 40 l0 -1.08 c1.2 -1.4 1.92 -3.32 1.92 -5.24 l0 -15.32 c0 -1.92 -0.72 -3.8 -1.88 -5.16 l0 -1.2 l5.88 0 l0 21.72 c0 1.88 0.72 3.8 1.96 5.2 l0 1.08 l-7.88 0 z"></path></g><g id="SvgjsG1084" featureKey="inlineSymbolFeature-0" transform="matrix(0.2384351014340372,0,0,0.2384351014340372,153.0448322137188,-6.080095086567948)" fill="url(#SvgjsLinearGradient1093)"><g xmlns="http://www.w3.org/2000/svg"><path d="M64.3,132.1l78.8,136.5c1.2,2.2-0.3,5-2.9,5H83.6c-3.2,0-6.1-1.7-7.8-4.5L9.4,154c-1.6-2.7-1.6-6.2,0-8.9L26.8,115h0.1   l21.5-37.2h-0.1l15.9-27.5c13.1-22.6,45.5-24,59.8-2.2c0.3,0.5,0.6,0.9,0.9,1.4l85.5,148c0.1,0.1,0.2,0.2,0.2,0.3   c10.2,17.4,35.3,17.1,45.4-0.3l7.7-13.3c-11.6-0.6-22.1-6.9-27.9-17.1L157,30.5c-1.2-2.2,0.3-5,2.9-5h56.5c3.2,0,6.1,1.7,7.8,4.5   l66.4,115c1.6,2.7,1.6,6.2,0,8.9l-7.7,13.3L243.8,235l-8.4,14.5c-13.1,22.6-45.7,23.6-59.5,1.4c-0.2-0.4-0.6-0.9-0.8-1.3l-85.5-148   c-0.1-0.1-0.2-0.2-0.2-0.3c-10.2-17.3-35.3-17-45.3,0.3L36.3,115C48,115.6,58.5,122,64.3,132.1z"></path></g></g><g id="SvgjsG1085" featureKey="nameRightFeature-0" transform="matrix(1.2136005687094367,0,0,1.2136005687094367,225.23288725743717,-1.5632079818929334)" fill="url(#SvgjsLinearGradient1097)"><path d="M14.64 38.36 l0 -2.84 l1.32 0 l1.56 1.68 c1.04 1.12 2.28 1.56 4.04 1.52 c1.6 0 4.04 -0.6 4.04 -2.08 c0 -1.88 -3.64 -4.16 -5.8 -5.44 c-1.88 -1.08 -5.16 -2.96 -5.16 -5.24 c0 -4.36 5.08 -5.44 6.56 -5.44 c1.88 0 3.76 0.44 5.76 1.36 l0 2.76 l-1.44 0 l-1.16 -1.32 c-0.84 -0.96 -2.04 -1.6 -3.36 -1.56 c-1.2 0 -3.44 0.92 -3.44 2.32 c0 1.64 3.88 2.88 7.92 5.64 c2.44 1.64 3.56 3.68 3.56 5.52 c0 2.64 -2.24 4.88 -6.08 4.88 c-5 0 -8.32 -1.76 -8.32 -1.76 z M48.28 33.88 l2.96 0 c-1.4 3.8 -5.08 6.52 -9.52 6.52 c-5.64 0 -10.12 -4.52 -10.12 -9.96 c0 -5.56 4.48 -10.08 10.12 -10.08 c5.56 0 10.08 4.4 10.16 9.88 l-16.24 0 c0.16 0.48 0.24 1 0.4 1.56 c1.28 4.4 4.32 7.56 7.4 7.56 c2.88 0 4.44 -2.72 4.84 -5.48 z M35.440000000000005 28.6 l12.28 0 c-1.36 -4.16 -4.56 -6.8 -7.56 -6.8 c-3.04 0 -4.76 2.92 -4.76 5.92 c0 0.28 0 0.6 0.04 0.88 z M53.92000000000001 40 l0 -1 c1.36 -1.48 2.04 -3.32 2.04 -5.32 l0 -6.6 c0 -1.96 -0.68 -3.84 -2.04 -5.24 l0 -1.16 l6.44 0 l0 2.08 c1.24 -1.24 3.6 -2.2 5.24 -2.2 c1.72 0 2.92 0.64 2.92 0.64 l-0.84 3.64 s-1.8 -1.48 -4 -1.48 c-2.92 0 -3.32 1.96 -3.32 2.48 l0 7.84 c0 2 0.76 3.84 2.04 5.32 l0 1 l-8.48 0 z M77.92 40 l-6.04 -15.44 c-0.16 -0.4 -0.28 -0.6 -0.52 -0.88 l-1.76 -1.88 l0 -1.12 l7.52 0 l0 1.12 l-0.56 1.2 c-0.32 0.68 -0.32 1.44 -0.04 2.2 l5 12.68 l5.08 -13.16 c0.36 -1 0.16 -2.12 -0.52 -2.8 l0 -1.24 l4.76 0 l0 1.24 l-1.52 1 c-0.48 0.32 -0.8 0.8 -0.96 1.24 l-6.12 15.84 l-4.32 0 z M92.68 40 l0 -1.08 c1.12 -1.4 1.72 -3.32 1.72 -5.24 l0 -6.64 c0 -1.96 -0.6 -3.84 -1.72 -5.24 l0 -1.12 l5.52 0 l0 13.04 c0 1.88 0.64 3.8 1.8 5.2 l0 1.08 l-7.32 0 z M95.76 18.92 c-1.52 0 -2.76 -1.28 -2.76 -2.8 c0 -1.56 1.24 -2.8 2.76 -2.8 c1.56 0 2.8 1.24 2.8 2.8 c0 1.52 -1.24 2.8 -2.8 2.8 z M120 34.96 l2.72 0 c-1.76 3.2 -5.16 5.44 -9.04 5.44 c-5.68 0 -11.12 -3.8 -11.12 -9.96 c0 -6.76 5.44 -10.08 11.12 -10.08 l1 0 c3.4 0 6.56 2.2 7.92 5.32 l-4.36 0 c-1.64 -2.52 -3.84 -3.88 -6.04 -3.88 c-3.12 0 -4.92 2.76 -4.92 6.28 c0 6.08 4.28 11.28 8 11.28 c2.4 0 4.16 -1.88 4.72 -4.4 z M141.76 33.88 l2.96 0 c-1.4 3.8 -5.08 6.52 -9.52 6.52 c-5.64 0 -10.12 -4.52 -10.12 -9.96 c0 -5.56 4.48 -10.08 10.12 -10.08 c5.56 0 10.08 4.4 10.16 9.88 l-16.24 0 c0.16 0.48 0.24 1 0.4 1.56 c1.28 4.4 4.32 7.56 7.4 7.56 c2.88 0 4.44 -2.72 4.84 -5.48 z M128.92 28.6 l12.28 0 c-1.36 -4.16 -4.56 -6.8 -7.56 -6.8 c-3.04 0 -4.76 2.92 -4.76 5.92 c0 0.28 0 0.6 0.04 0.88 z M148.16 38.36 l0 -2.84 l1.32 0 l1.56 1.68 c1.04 1.12 2.28 1.56 4.04 1.52 c1.6 0 4.04 -0.6 4.04 -2.08 c0 -1.88 -3.64 -4.16 -5.8 -5.44 c-1.88 -1.08 -5.16 -2.96 -5.16 -5.24 c0 -4.36 5.08 -5.44 6.56 -5.44 c1.88 0 3.76 0.44 5.76 1.36 l0 2.76 l-1.44 0 l-1.16 -1.32 c-0.84 -0.96 -2.04 -1.6 -3.36 -1.56 c-1.2 0 -3.44 0.92 -3.44 2.32 c0 1.64 3.88 2.88 7.92 5.64 c2.44 1.64 3.56 3.68 3.56 5.52 c0 2.64 -2.24 4.88 -6.08 4.88 c-5 0 -8.32 -1.76 -8.32 -1.76 z"></path></g>
			</g>
		</svg>
	